# xmcd
#
# Track frame offsets:
#	150
#	19110
#	35035
#	54986
#	74295
#	94852
#	117822
#	134007
#	154051
#	175442
#	196986
#	216100
#	237020
#	259663
#	283698
#	305975
#
# Disc length: 4327 seconds
#
# Revision: 2
# Processed by: cddbd v1.5.2PL0 Copyright (c) Steve Scherf et al.
# Submitted via: EZCDAudioConverter 7.1.7.1
#
DISCID=ed10e510
DTITLE=许美静 - 爱情世界
DYEAR=2002
DGENRE=Pop
TTITLE0=爱情世界
TTITLE1=别伤我的心
TTITLE2=梦中的天空
TTITLE3=真情谊
TTITLE4=是否
TTITLE5=阳光总在风雨后
TTITLE6=昙花
TTITLE7=迫在眉梢
TTITLE8=遗憾
TTITLE9=铁窗
TTITLE10=你抽的烟
TTITLE11=快乐无罪
TTITLE12=都是夜归人
TTITLE13=城里的月光
TTITLE14=蔓延
TTITLE15=颜色
EXTD=
EXTT0=
EXTT1=
EXTT2=
EXTT3=
EXTT4=
EXTT5=
EXTT6=
EXTT7=
EXTT8=
EXTT9=
EXTT10=
EXTT11=
EXTT12=
EXTT13=
EXTT14=
EXTT15=
PLAYORDER=
